<?xml version="1.0" encoding="utf-8"?>
<!-- Generator: Adobe Illustrator 16.0.0, SVG Export Plug-In . SVG Version: 6.00 Build 0)  -->
<!DOCTYPE svg PUBLIC "-//W3C//DTD SVG 1.1//EN" "http://www.w3.org/Graphics/SVG/1.1/DTD/svg11.dtd">
<svg version="1.1" xmlns="http://www.w3.org/2000/svg" xmlns:xlink="http://www.w3.org/1999/xlink" x="0px" y="0px" width="1400px"
	 height="980px" viewBox="0 0 1400 980" enable-background="new 0 0 1400 980" xml:space="preserve">
<g id="BACKGROUND">
	<rect x="-6.465" y="-7.225" fill="#B6F1B1" width="1412.93" height="994.45"/>
</g>
<g id="OBJECTS">
	<g>
		<defs>
			<rect id="SVGID_1_" x="-6.465" y="-7.225" width="1412.93" height="994.45"/>
		</defs>
		<clipPath id="SVGID_2_">
			<use xlink:href="#SVGID_1_"  overflow="visible"/>
		</clipPath>
		<circle clip-path="url(#SVGID_2_)" fill="#FDB515" cx="481.008" cy="181.913" r="42.32"/>
		<path clip-path="url(#SVGID_2_)" fill="#EFF9ED" d="M-26.499,197.887c35.705-31.702,88.657-31.522,136.365-29.58
			c22.418,0.913,45.766,2.074,65.404,12.927c16.648,9.2,29.005,24.542,39.431,40.451c23.515,35.884,39.439,76.716,46.426,119.045
			c31.37-9.868,68.231,1.153,89.037,26.621c6.562,8.032,12.061,17.677,21.425,22.135c8.799,4.189,19.11,2.854,28.749,1.415
			c28.986-4.327,58.335-8.778,87.483-5.735c29.148,3.043,58.579,14.492,77.338,37.008c10.967,13.164,19.479,30.749,36.002,35.284
			c21.688,5.953,43.46-14.625,65.601-10.677c21.292,3.798,34.318,28.752,55.778,31.438c8.771,1.098,17.475-1.806,26.035-4.009
			c16.465-4.237,34.13-5.918,50.323-0.736c16.192,5.183,30.565,18.312,33.6,35.041c-260.915,3.488-521.861,4.547-782.795,3.177
			c-13.569-0.07-27.59-0.241-39.987-5.76c-21.348-9.504-32.955-32.301-42.92-53.437c-13.833-29.339-27.667-58.677-41.501-88.019
			c-15.897-33.717-17.116-54.522,0.529-84.944C-58.195,251.978-51.392,219.989-26.499,197.887z"/>
		<path clip-path="url(#SVGID_2_)" fill="#EFF9ED" d="M1520.942,305.117c-14.547-12.916-36.119-12.843-55.557-12.051
			c-9.134,0.372-18.646,0.845-26.646,5.267c-6.783,3.748-11.817,9.999-16.065,16.48c-9.58,14.619-16.067,31.255-18.914,48.5
			c-12.78-4.02-27.798,0.47-36.274,10.846c-2.673,3.272-4.913,7.202-8.729,9.018c-3.585,1.707-7.785,1.163-11.713,0.576
			c-11.809-1.763-23.766-3.576-35.642-2.336c-11.875,1.24-23.865,5.904-31.508,15.078c-4.469,5.363-7.937,12.527-14.668,14.375
			c-8.836,2.425-17.705-5.958-26.726-4.35c-8.675,1.547-13.982,11.713-22.725,12.808c-3.574,0.447-7.119-0.736-10.607-1.633
			c-6.708-1.727-13.904-2.412-20.502-0.3c-6.597,2.112-12.453,7.46-13.688,14.276c106.299,1.421,212.61,1.853,318.917,1.294
			c5.528-0.029,11.241-0.098,16.292-2.347c8.697-3.872,13.426-13.16,17.485-21.771c5.637-11.953,11.271-23.906,16.908-35.86
			c6.477-13.736,6.974-22.213-0.215-34.607C1533.855,327.153,1531.084,314.121,1520.942,305.117z"/>
		<g clip-path="url(#SVGID_2_)">
			<path fill="#CCEDC8" d="M784.824,322.143h88.801c0,0-7.507-22.17-23.455-23.849s-9.369-32.345-25.669-32.121
				s-39.802,11.976-39.802,11.976L784.824,322.143z"/>
			<path fill="#EFF9ED" d="M797.854,268.487c-6.105-5.42-15.159-5.39-23.316-5.058c-3.833,0.156-7.825,0.354-11.183,2.21
				c-2.847,1.573-4.96,4.196-6.742,6.917c-4.021,6.135-6.743,13.117-7.938,20.354c-5.363-1.687-11.666,0.197-15.224,4.552
				c-1.122,1.373-2.062,3.022-3.663,3.785c-1.505,0.716-3.268,0.488-4.916,0.242c-4.956-0.74-9.974-1.501-14.958-0.981
				c-4.983,0.521-10.016,2.478-13.224,6.328c-1.875,2.25-3.331,5.257-6.156,6.033c-3.708,1.018-7.431-2.5-11.216-1.826
				c-3.641,0.649-5.868,4.917-9.537,5.375c-1.5,0.188-2.988-0.309-4.452-0.686c-2.815-0.725-5.835-1.012-8.604-0.125
				c-2.769,0.886-5.226,3.131-5.745,5.991c44.612,0.596,89.229,0.777,133.845,0.543c2.32-0.012,4.718-0.041,6.837-0.985
				c3.65-1.625,5.635-5.522,7.339-9.137c2.365-5.016,4.73-10.033,7.096-15.05c2.719-5.765,2.927-9.322-0.09-14.524
				C803.272,277.736,802.109,272.267,797.854,268.487z"/>
		</g>
		<rect x="-6.465" y="636.159" clip-path="url(#SVGID_2_)" fill="#462737" width="1435.767" height="369.324"/>
		<polygon clip-path="url(#SVGID_2_)" fill="#35A54F" points="17.944,347.654 45.944,347.654 45.944,363.654 71.944,363.654 
			71.944,321.764 94.944,321.764 94.944,337.654 119.944,337.654 119.944,375.654 172.291,375.654 172.291,413.34 235.944,413.34 
			235.944,385.654 252.307,385.654 252.307,406.026 394.835,406.026 394.835,417.841 435.944,417.841 435.944,437.745 
			459.841,437.745 459.841,396.654 508.208,396.654 508.208,437.916 534.607,437.916 534.607,379.84 584.136,379.84 
			584.136,433.068 618.924,433.068 618.924,452.654 662.944,452.654 662.944,465.654 696.944,465.654 696.944,484.457 
			-21.056,488.573 -21.056,344.654 		"/>
		<polygon clip-path="url(#SVGID_2_)" fill="#175957" points="-7.671,321.764 32.388,321.764 32.388,390.76 51.887,390.76 
			51.887,421.499 75.885,421.499 75.885,395.26 105.884,395.26 105.884,426.24 144.882,426.24 156.497,437.855 156.497,458.053 
			195.879,458.053 195.879,389.909 212.378,389.909 212.378,425.401 233.377,425.401 233.377,442.743 278.375,442.743 
			278.375,351.762 317.576,351.762 317.576,389.909 360.992,389.909 360.992,435.649 417.632,435.649 417.632,458.053 
			454.806,458.053 454.806,468.756 630.857,468.756 630.857,480.756 683.075,480.756 683.075,484.743 691.429,484.743 
			691.429,495.755 -7.671,495.755 		"/>
		<g clip-path="url(#SVGID_2_)">
			<path fill="#CCEDC8" d="M94.65,435.397l0.318,2.32l-0.317,0.034l-0.877-2.354l0.231,2.422l-3.219,0.342l-1.46-3.202v2.552
				l-2.042-3.208v4.229l-1.002,0.106l-0.457-0.617v0.665l-1.852,0.196l-0.555-2.869v2.227l-1.675-3.209l0.532,4.032l-2.526,0.268
				l-1.217-3.317v3.447l-0.215,0.023l-0.587-1.389l-0.343,1.488l-3.85,0.409c9.736-14.222,26.802-2.844,26.802-2.844l-3.867,0.41
				L94.65,435.397z"/>
			<path fill="#CCEDC8" d="M90.055,419.097l-1.859,2.352l-2.006-0.273l0.748,0.802l-2.061-0.401l1.532,1.204h-1.24l1.128,1.07
				l-1.366,1.728l-1.659-1.121l0.657,1.094l-2.186-1.094l1.821,1.823l-1.313-0.365l0.438,0.875l0.152,1.431l-0.722,0.913
				l-2.638-1.25l1.094,1.24l-3.5-0.219l1.531,0.638l2.153,1.313l-0.476,0.602h-1.149l0.506,0.814l-0.327,0.414l-2.895-0.648
				l2.053,1.712l-0.437,0.553h-1.617l1.152,0.587l-0.826,1.045l-0.763,0.079l0.448,0.319l-2.891,3.658
				C71.896,421.504,90.055,419.097,90.055,419.097z"/>
			<path fill="#CCEDC8" d="M91.887,448.081l-2.066-0.913l-0.307-1.601l-0.364,0.75l-0.234-1.671l-0.445,1.441l-0.306-0.953
				l-0.454,1.102l-1.518-0.67l0.357-1.52l-0.586,0.744l0.209-1.919l-0.798,1.799l-0.074-1.089l-0.49,0.528l-0.941,0.43l-0.802-0.354
				l0.205-2.302l-0.578,1.112l-0.713-2.737l-0.059,1.316l-0.367,1.942l-0.528-0.233l-0.283-0.883l-0.432,0.567l-0.364-0.161
				l-0.27-2.366l-0.665,1.953l-0.485-0.215l-0.398-1.242l-0.118,1.014l-0.918-0.405l-0.242-0.569l-0.108,0.415l-3.213-1.419
				C85.766,434.657,91.887,448.081,91.887,448.081z"/>
			<path fill="#CCEDC8" d="M72.042,435.254h-1.836l-0.079-0.113l1.186-0.953h-1.856l-0.2-0.285l1.036-0.548l2.261-1.317L70,432.839
				h-1.492l-0.333-0.474l1.023-0.833l1.509-0.453l-3.961-0.747l1.432-0.788l-0.802-0.857l2.407-1.24h-3.72l1.094-0.583h-2.849
				l-1.524-2.167l2.555-1.188h-2.485l1.532-1.531l-2.841,0.955l-0.948-1.348c1.105-0.437,3.957-1.558,4.61-1.763
				c0.103-0.021,0.15-0.032,0.128-0.032c-0.017,0-0.061,0.011-0.128,0.032c-0.67,0.136-3.719,0.665-5.201,0.921l-0.973-1.384
				l2.427-1.247l-3.03,0.39l-1.505-2.14c0,0,22.85,3.288,16.615,23.629l-2.418-3.439L72.042,435.254z"/>
			<path fill="#CCEDC8" d="M70.875,434.188l-2.942,1.827l0,0l0.244-1.274l-2.042-0.729l1.458-1.973l-2.917,0.801v-0.875l-1.38,0.76
				l-2.586-1.835l1.574-1.91l-2.275,0.219l1.449-1.531l-3.008,1.618l-1.147-0.813l2.196-2.519l-2.99,1.349l0.415-1.349l-1.688,1.052
				l-0.905-0.643l1.667-1.758l-2.641,1.068l-0.327-0.232l0.488-0.836l-0.859,0.573l-1.63-1.156c0,0,21.742-2.188,22.508,15.972
				l-4.228-3L70.875,434.188z"/>
			<path fill="#CCEDC8" d="M67.044,439.502l0.349,3.446l0,0l-1.037-0.779l-1.552,1.514l-1.132-2.177l-0.562,2.972l-0.785-0.384
				l0.076,1.574l-2.785,1.517l-1.024-2.253l-0.803,2.14l-0.739-1.974l0.132,3.414l-1.235,0.672l-1.298-3.079l-0.102,3.279
				l-1.03-0.965l0.204,1.979l-0.975,0.531l-0.848-2.271l-0.2,2.841l-0.352,0.192l-0.537-0.806l0.137,1.023l-1.754,0.956
				c0,0,7.586-20.493,24.236-13.203l-4.552,2.479L67.044,439.502z"/>
			<path fill="#CCEDC8" d="M69.708,438.241l-0.346,1.429l-0.739-0.057l-0.665-1.372v1.321l-2.771-0.213v-3.733l-1.331,3.63
				l-0.514-0.039l-0.708-2.315l-0.253,2.241l-3.174-0.244v-5.388l-0.778,5.328l-0.279-0.021l-0.256-2.792l-0.745,2.715l-0.226-0.017
				v-5.212l-1.217,4.594l-0.438-1.057l-0.3,1.524l-0.138-0.01v-3.738l-1.428,3.628l-0.323-0.025v-1.124l-0.948,1.051l0,0v-1.929
				l-0.829,1.865l-1.926-0.148c0,0,14.861-14.877,24.16,1.86l-3.184-0.245L69.708,438.241z"/>
			<path fill="#CCEDC8" d="M67.31,498.909h12.689c0,0-2.879-11.705-4.148-30.52c-1.237-18.339-0.429-30.52-0.429-30.52h-3.771
				c0,0-0.847,14.475-0.95,30.997C70.591,486.369,67.31,498.909,67.31,498.909z"/>
		</g>
		<g clip-path="url(#SVGID_2_)">
			<path fill="#CCEDC8" d="M476.279,430.34l-0.256,2.328l-0.315-0.044l-0.277-2.497l-0.366,2.406l-3.205-0.452l-0.637-3.461
				l-0.621,2.476l-1.2-3.609l-1.03,4.103l-0.998-0.141l-0.293-0.709l-0.162,0.645l-1.844-0.26l0.16-2.918l-0.542,2.16l-0.844-3.52
				l-0.466,4.04l-2.515-0.355l-0.373-3.514l-0.839,3.343l-0.213-0.03l-0.232-1.49l-0.695,1.359l-3.833-0.541
				c12.905-11.423,26.688,3.766,26.688,3.766l-3.85-0.543L476.279,430.34z"/>
			<path fill="#CCEDC8" d="M475.792,413.412l-2.376,1.829l-1.879-0.753l0.53,0.96l-1.9-0.891l1.192,1.54l-1.203-0.302l0.834,1.312
				l-1.746,1.343l-1.336-1.491l0.371,1.221l-1.854-1.593l1.322,2.211l-1.185-0.673l0.211,0.956l-0.202,1.425l-0.922,0.71
				l-2.255-1.855l0.759,1.469l-3.342-1.064l1.33,0.992l1.768,1.797l-0.607,0.467l-1.115-0.28l0.293,0.913l-0.418,0.322l-2.649-1.334
				l1.575,2.161l-0.558,0.429l-1.568-0.394l0.974,0.851l-1.056,0.812l-0.76-0.109l0.357,0.419l-3.695,2.844
				C457.592,411.326,475.792,413.412,475.792,413.412z"/>
			<path fill="#CCEDC8" d="M470.512,441.97l-1.782-1.388l0.091-1.628l-0.536,0.639l0.18-1.677l-0.783,1.289l-0.064-0.999
				l-0.708,0.958l-1.309-1.02l0.717-1.388l-0.75,0.579l0.67-1.811l-1.211,1.551l0.193-1.074l-0.604,0.393l-1.018,0.188l-0.692-0.539
				l0.759-2.183l-0.832,0.938l-0.025-2.829l-0.377,1.263l-0.829,1.794l-0.455-0.355l-0.06-0.926l-0.557,0.445l-0.313-0.245
				l0.314-2.36l-1.121,1.732l-0.418-0.326l-0.084-1.302l-0.361,0.955l-0.792-0.617l-0.096-0.611l-0.206,0.376l-2.771-2.159
				C467.843,427.459,470.512,441.97,470.512,441.97z"/>
			<path fill="#CCEDC8" d="M450.893,426.523l-1.539,1.002l-0.128-0.051l0.474-1.446l-1.556,1.013l-0.323-0.129l0.569-1.024
				l1.176-2.337l-1.702,2.064l-1.251,0.814l-0.538-0.215l0.403-1.256l1.018-1.203l-3.728,1.536l0.77-1.441l-1.14-0.28l1.34-2.352
				l-3.117,2.029l0.598-1.085l-2.387,1.554l-2.46-0.984l1.493-2.39l-2.083,1.356l0.448-2.119l-1.86,2.351l-1.53-0.613
				c0.688-0.969,2.466-3.465,2.901-3.992c0.075-0.073,0.108-0.109,0.089-0.097c-0.014,0.009-0.044,0.043-0.089,0.097
				c-0.487,0.479-2.754,2.587-3.856,3.61l-1.57-0.629l1.353-2.369l-2.326,1.979l-2.429-0.972c0,0,20.942-9.714,26.817,10.735
				l-3.903-1.562L450.893,426.523z"/>
			<path fill="#CCEDC8" d="M449.333,426.267l-1.469,3.136l0,0l-0.491-1.201l-2.109,0.503l0.146-2.449l-2.008,2.263l-0.477-0.732
				l-0.742,1.39l-3.169-0.126l0.276-2.459l-1.787,1.424l0.378-2.074l-1.638,2.998l-1.405-0.056l0.466-3.309l-1.77,2.762
				l-0.389-1.357l-0.84,1.803l-1.109-0.044l0.438-2.384l-1.63,2.336l-0.4-0.016l-0.047-0.967l-0.407,0.949l-1.997-0.08
				c0,0,17.026-13.698,27.577,1.102l-5.179-0.207L449.333,426.267z"/>
			<path fill="#CCEDC8" d="M448.297,429.52l0.322,3.449h0l-1.031-0.787l-1.563,1.502l-1.115-2.186l-0.585,2.968l-0.783-0.39
				l0.064,1.574l-2.796,1.496l-1.007-2.26l-0.819,2.133l-0.724-1.979l0.106,3.415l-1.24,0.663l-1.274-3.089l-0.127,3.278
				l-1.022-0.973l0.188,1.98l-0.979,0.523l-0.83-2.277l-0.222,2.84l-0.354,0.189l-0.531-0.81l0.129,1.024l-1.762,0.942
				c0,0,7.744-20.434,24.337-13.016l-4.571,2.444L448.297,429.52z"/>
			<path fill="#CCEDC8" d="M453.799,425.89l-1.375,0.522l-0.371-0.642l0.756-1.324l-1.089,0.747l-1.391-2.407l3.08-2.11
				l-3.748,0.955l-0.257-0.446l1.509-1.893l-1.992,1.057l-1.593-2.756l4.444-3.046l-4.835,2.37l-0.14-0.242l2.159-1.79l-2.661,0.92
				l-0.114-0.196l4.299-2.946l-4.478,1.593l0.625-0.958l-1.427,0.614l-0.069-0.12l3.083-2.113l-3.8,0.874l-0.162-0.28l0.927-0.635
				l-1.402-0.188l0,0l1.591-1.09l-2.007,0.371l-0.967-1.673c0,0,20.674,3.848,12.124,20.98l-1.598-2.765L453.799,425.89z"/>
			<path fill="#CCEDC8" d="M448.461,488.573h12.689c0,0-2.879-11.705-4.148-30.52c-1.236-18.339-0.429-30.52-0.429-30.52h-3.771
				c0,0-0.847,14.475-0.95,30.997C451.743,476.033,448.461,488.573,448.461,488.573z"/>
		</g>
		<g clip-path="url(#SVGID_2_)">
			<path fill="#CCEDC8" d="M265.726,425.061l0.318,2.32l-0.317,0.034l-0.877-2.354l0.231,2.422l-3.219,0.342l-1.46-3.202v2.552
				l-2.042-3.208v4.229l-1.001,0.106l-0.457-0.617v0.665l-1.852,0.196l-0.555-2.869v2.227l-1.675-3.209l0.532,4.032l-2.526,0.268
				l-1.217-3.318v3.447l-0.215,0.023l-0.587-1.389l-0.343,1.488l-3.85,0.409c9.736-14.222,26.802-2.844,26.802-2.844l-3.867,0.41
				L265.726,425.061z"/>
			<path fill="#CCEDC8" d="M261.131,408.761l-1.859,2.352l-2.006-0.273l0.748,0.802l-2.06-0.401l1.531,1.204h-1.24l1.128,1.07
				l-1.366,1.728l-1.658-1.121l0.656,1.094l-2.186-1.094l1.821,1.823l-1.313-0.365l0.438,0.875l0.151,1.432l-0.722,0.913
				l-2.639-1.25l1.094,1.24l-3.5-0.219l1.531,0.638l2.153,1.313l-0.476,0.602h-1.149l0.506,0.814l-0.328,0.414l-2.894-0.648
				l2.053,1.712l-0.437,0.553h-1.616l1.152,0.587l-0.826,1.045l-0.764,0.079l0.449,0.319l-2.892,3.658
				C242.971,411.168,261.131,408.761,261.131,408.761z"/>
			<path fill="#CCEDC8" d="M262.962,437.745l-2.066-0.913l-0.307-1.601l-0.364,0.75l-0.233-1.671l-0.445,1.441l-0.306-0.953
				l-0.454,1.102l-1.518-0.67l0.357-1.52l-0.586,0.744l0.209-1.919l-0.797,1.799l-0.075-1.089l-0.49,0.528l-0.941,0.43l-0.803-0.354
				l0.205-2.302l-0.578,1.112l-0.713-2.737l-0.059,1.316l-0.367,1.942l-0.528-0.233l-0.283-0.883l-0.432,0.567l-0.363-0.161
				l-0.27-2.366l-0.665,1.953l-0.485-0.214l-0.398-1.242l-0.118,1.014l-0.918-0.405l-0.242-0.569l-0.108,0.415l-3.213-1.419
				C256.841,424.321,262.962,437.745,262.962,437.745z"/>
			<path fill="#CCEDC8" d="M243.117,424.918h-1.836l-0.08-0.113l1.186-0.953h-1.856l-0.2-0.285l1.035-0.548l2.261-1.317
				l-2.553,0.801h-1.492l-0.333-0.474l1.023-0.833l1.509-0.453l-3.961-0.747l1.432-0.788l-0.802-0.857l2.407-1.24h-3.719
				l1.094-0.583h-2.849l-1.524-2.167l2.555-1.188h-2.485l1.531-1.531l-2.841,0.955l-0.948-1.348c1.105-0.437,3.957-1.558,4.61-1.763
				c0.102-0.021,0.15-0.032,0.127-0.032c-0.017,0-0.061,0.011-0.127,0.032c-0.67,0.136-3.72,0.665-5.202,0.921l-0.973-1.384
				l2.427-1.247l-3.029,0.39l-1.505-2.14c0,0,22.85,3.288,16.614,23.629l-2.418-3.439L243.117,424.918z"/>
			<path fill="#CCEDC8" d="M241.95,423.852l-2.942,1.827l0,0l0.244-1.274l-2.042-0.729l1.458-1.973l-2.917,0.801v-0.875l-1.38,0.76
				l-2.586-1.835l1.574-1.91l-2.274,0.219l1.448-1.531l-3.008,1.619l-1.147-0.814l2.196-2.519l-2.99,1.349l0.415-1.349l-1.688,1.052
				l-0.905-0.643l1.668-1.758l-2.641,1.068l-0.327-0.231l0.488-0.836l-0.859,0.573l-1.629-1.156c0,0,21.742-2.188,22.508,15.972
				l-4.227-3L241.95,423.852z"/>
			<path fill="#CCEDC8" d="M238.121,429.166l0.349,3.446l0,0l-1.038-0.779l-1.552,1.514l-1.132-2.177l-0.562,2.972l-0.785-0.384
				l0.076,1.574l-2.785,1.517l-1.025-2.253l-0.802,2.14l-0.74-1.974l0.132,3.414l-1.235,0.672l-1.298-3.079l-0.102,3.279
				l-1.03-0.965l0.204,1.979l-0.975,0.531l-0.847-2.271l-0.201,2.841l-0.352,0.192l-0.537-0.806l0.137,1.023l-1.755,0.956
				c0,0,7.586-20.493,24.236-13.203l-4.552,2.48L238.121,429.166z"/>
			<path fill="#CCEDC8" d="M240.784,427.905l-0.347,1.429l-0.739-0.057l-0.665-1.372v1.321l-2.771-0.213v-3.733l-1.331,3.63
				l-0.513-0.039l-0.708-2.315l-0.254,2.241l-3.174-0.244v-5.388l-0.778,5.328l-0.278-0.021l-0.256-2.792l-0.745,2.715l-0.226-0.017
				v-5.212l-1.217,4.594l-0.438-1.057l-0.3,1.524l-0.138-0.01v-3.738l-1.427,3.628l-0.323-0.025v-1.124l-0.948,1.051l0,0v-1.929
				l-0.829,1.865l-1.927-0.148c0,0,14.861-14.878,24.16,1.86l-3.184-0.245L240.784,427.905z"/>
			<path fill="#CCEDC8" d="M238.385,488.573h12.69c0,0-2.88-11.705-4.148-30.52c-1.236-18.339-0.429-30.52-0.429-30.52h-3.771
				c0,0-0.847,14.475-0.95,30.997C241.667,476.033,238.385,488.573,238.385,488.573z"/>
		</g>
		<g clip-path="url(#SVGID_2_)">
			<path fill="#CCEDC8" d="M310.603,439.161l-0.256,2.328l-0.315-0.044l-0.277-2.497l-0.366,2.406l-3.206-0.452l-0.637-3.461
				l-0.622,2.476l-1.199-3.61l-1.03,4.103l-0.998-0.141l-0.292-0.709l-0.162,0.645l-1.844-0.26l0.16-2.918l-0.542,2.16l-0.843-3.52
				l-0.466,4.04l-2.516-0.354l-0.373-3.514l-0.839,3.343l-0.214-0.03l-0.232-1.49l-0.695,1.359l-3.834-0.541
				c12.905-11.423,26.688,3.766,26.688,3.766l-3.851-0.543L310.603,439.161z"/>
			<path fill="#CCEDC8" d="M310.115,422.232l-2.376,1.829l-1.879-0.753l0.53,0.96l-1.901-0.891l1.192,1.54l-1.202-0.302l0.833,1.313
				l-1.745,1.343l-1.336-1.491l0.37,1.221l-1.854-1.593l1.322,2.212l-1.185-0.673l0.211,0.955l-0.201,1.425l-0.923,0.71
				l-2.254-1.855l0.759,1.469l-3.342-1.064l1.33,0.992l1.768,1.797l-0.607,0.468l-1.115-0.28l0.293,0.913l-0.418,0.322l-2.649-1.334
				l1.574,2.161l-0.558,0.429l-1.567-0.394l0.974,0.851l-1.056,0.812l-0.759-0.109l0.357,0.419l-3.695,2.844
				C291.916,420.146,310.115,422.232,310.115,422.232z"/>
			<path fill="#CCEDC8" d="M304.835,450.791l-1.782-1.388l0.092-1.628l-0.536,0.639l0.18-1.678l-0.782,1.289l-0.065-0.999
				l-0.708,0.958l-1.309-1.02l0.717-1.388l-0.75,0.579l0.67-1.811l-1.211,1.551l0.193-1.074l-0.604,0.393l-1.018,0.188l-0.692-0.539
				l0.759-2.183l-0.831,0.938l-0.025-2.829l-0.378,1.263l-0.829,1.794l-0.456-0.355l-0.06-0.926l-0.557,0.445l-0.313-0.245
				l0.314-2.36l-1.12,1.732l-0.418-0.326l-0.084-1.301l-0.361,0.955l-0.792-0.617l-0.096-0.611l-0.206,0.376l-2.771-2.159
				C302.166,436.28,304.835,450.791,304.835,450.791z"/>
			<path fill="#CCEDC8" d="M285.216,435.344l-1.539,1.002l-0.128-0.051l0.474-1.446l-1.556,1.013l-0.323-0.129l0.568-1.025
				l1.176-2.337l-1.702,2.064l-1.25,0.814l-0.538-0.215l0.402-1.256l1.018-1.203l-3.728,1.536l0.77-1.441l-1.14-0.28l1.34-2.352
				l-3.117,2.029l0.598-1.085l-2.387,1.554l-2.459-0.984l1.493-2.39l-2.082,1.356l0.447-2.119l-1.86,2.351l-1.53-0.613
				c0.688-0.969,2.466-3.465,2.902-3.993c0.074-0.073,0.108-0.109,0.089-0.097c-0.014,0.009-0.044,0.043-0.089,0.097
				c-0.488,0.48-2.754,2.587-3.856,3.611l-1.57-0.629l1.353-2.369l-2.326,1.979l-2.429-0.972c0,0,20.942-9.714,26.817,10.735
				l-3.903-1.562L285.216,435.344z"/>
			<path fill="#CCEDC8" d="M283.657,435.087l-1.469,3.136l0,0l-0.491-1.201l-2.109,0.503l0.146-2.45l-2.007,2.263l-0.477-0.733
				l-0.742,1.39l-3.169-0.127l0.276-2.459l-1.786,1.424l0.378-2.074l-1.638,2.998l-1.405-0.056l0.466-3.309l-1.769,2.762
				l-0.389-1.357l-0.841,1.803l-1.109-0.044l0.438-2.384l-1.63,2.336l-0.4-0.016l-0.048-0.967l-0.407,0.949l-1.997-0.08
				c0,0,17.026-13.698,27.577,1.102l-5.179-0.207L283.657,435.087z"/>
			<path fill="#CCEDC8" d="M282.621,438.34l0.322,3.448l0,0l-1.031-0.787l-1.564,1.502l-1.115-2.186l-0.585,2.968l-0.783-0.39
				l0.064,1.574l-2.796,1.496l-1.007-2.26l-0.819,2.133l-0.724-1.979l0.106,3.415l-1.24,0.663l-1.274-3.089l-0.127,3.278
				l-1.022-0.974l0.188,1.98l-0.979,0.523l-0.83-2.277l-0.223,2.84l-0.353,0.189l-0.531-0.81l0.129,1.024l-1.762,0.942
				c0,0,7.744-20.434,24.337-13.016l-4.571,2.444L282.621,438.34z"/>
			<path fill="#CCEDC8" d="M288.123,434.71l-1.375,0.522l-0.371-0.642l0.755-1.324l-1.089,0.747l-1.391-2.407l3.079-2.11
				l-3.747,0.955l-0.258-0.446l1.509-1.893l-1.992,1.057l-1.593-2.756l4.444-3.046l-4.834,2.37l-0.14-0.242l2.158-1.79l-2.661,0.92
				l-0.114-0.196l4.299-2.946l-4.478,1.594l0.625-0.959l-1.427,0.614l-0.069-0.12l3.083-2.113l-3.8,0.874l-0.162-0.28l0.927-0.635
				l-1.403-0.188l0,0l1.591-1.091l-2.007,0.371l-0.966-1.673c0,0,20.673,3.848,12.124,20.98l-1.598-2.765L288.123,434.71z"/>
			<path fill="#CCEDC8" d="M282.784,497.394h12.69c0,0-2.88-11.705-4.148-30.52c-1.236-18.339-0.429-30.52-0.429-30.52h-3.771
				c0,0-0.847,14.475-0.95,30.997C286.066,484.854,282.784,497.394,282.784,497.394z"/>
		</g>
		<rect x="-6.465" y="484.457" clip-path="url(#SVGID_2_)" fill="#34938D" width="1435.767" height="161.702"/>
		<path opacity="0.29" clip-path="url(#SVGID_2_)" fill="#B8D3B4" d="M1429.302,603.691
			c-40.737-14.744-94.326-24.517-164.764-23.863c-267.216,2.479-339.031-14.611-214.217-11.435
			c124.814,3.176,177.432-20.402,124.757-21.006c-52.676-0.604-351.325,1.777-453.325-3.123s-202,4.9-94,7.314
			c108,2.415-42,21.072-200.599,16.814c-123.446-3.314-342.551,18.304-433.619,28.051v43.715h1435.767V603.691z"/>
		<g clip-path="url(#SVGID_2_)">
			<path opacity="0.29" fill="#B8D3B4" d="M622.83,551.811c-12.101-0.162-25.299,0.144-39.12,0.705h39.12V551.811z"/>
			<path opacity="0.29" fill="#B8D3B4" d="M245.013,542.229c-89.515,0.207-173.077,5.059-237.583,10.286h379.298
				c-46.972-15.462,203.54-18.006,167.766-36.578c-39.15-20.325-333.893-11.417-417.039,2.457
				c-95.695,15.969,96.043,10.321,128.205,11.091C271.725,529.631,441.801,541.774,245.013,542.229z"/>
		</g>
		<g clip-path="url(#SVGID_2_)">
			<polygon fill="#996717" points="1185.286,609.372 1155.264,609.372 1160.143,188.731 1172.459,188.731 			"/>
			<path fill="#1B5E3B" d="M1016.822,208.071l1.764,16.042l2.174-0.307l1.912-17.204l2.521,16.578l22.09-3.117l4.39-23.849
				l4.282,17.061l8.266-24.875l7.096,28.271l6.875-0.97l2.019-4.887l1.116,4.445l12.706-1.793l-1.104-20.109l3.735,14.882
				l5.813-24.258l3.209,27.841l17.335-2.446l2.567-24.216l5.782,23.038l1.474-0.208l1.597-10.269l4.79,9.367l26.42-3.728
				c-88.935-78.721-183.914,25.953-183.914,25.953l26.534-3.744L1016.822,208.071z"/>
			<path fill="#1B5E3B" d="M1020.187,91.415l16.374,12.602l12.949-5.193l-3.651,6.616l13.098-6.137l-8.218,10.612l8.287-2.08
				l-5.747,9.047l12.028,9.257l9.207-10.274l-2.552,8.413l12.773-10.979l-9.112,15.241l8.162-4.64l-1.457,6.584l1.388,9.821
				l6.358,4.893l15.538-12.786l-5.232,10.122l23.031-7.335l-9.166,6.834l-12.185,12.388l4.187,3.222l7.685-1.929l-2.018,6.29
				l2.881,2.217l18.258-9.191l-10.851,14.892l3.846,2.959l10.805-2.712l-6.713,5.861l7.275,5.599l5.234-0.753l-2.46,2.887
				l25.461,19.595C1145.603,77.036,1020.187,91.415,1020.187,91.415z"/>
			<path fill="#1B5E3B" d="M1056.57,288.217l12.279-9.568l-0.632-11.217l3.693,4.404l-1.241-11.56l5.393,8.882l0.444-6.879
				l4.88,6.603l9.021-7.028l-4.939-9.562l5.166,3.991l-4.618-12.477l8.35,10.686l-1.33-7.4l4.165,2.707l7.012,1.298l4.769-3.715
				l-5.229-15.04l5.729,6.466l0.174-19.495l2.603,8.702l5.712,12.363l3.14-2.446l0.412-6.379l3.837,3.068l2.161-1.684l-2.165-16.268
				l7.721,11.939l2.884-2.247l0.579-8.97l2.49,6.579l5.455-4.251l0.664-4.21l1.416,2.589l19.096-14.878
				C1074.963,188.219,1056.57,288.217,1056.57,288.217z"/>
			<path fill="#1B5E3B" d="M1191.769,181.77l10.603,6.904l0.882-0.353l-3.264-9.966l10.721,6.981l2.226-0.891l-3.918-7.06
				l-8.104-16.107l11.729,14.224l8.617,5.611l3.705-1.483l-2.773-8.66l-7.013-8.287l25.687,10.582l-5.305-9.932l7.855-1.932
				l-9.236-16.21l21.479,13.987l-4.124-7.483l16.452,10.713l16.95-6.785l-10.289-16.466l14.352,9.346l-3.085-14.604l12.816,16.202
				l10.546-4.221c-4.741-6.679-16.992-23.878-19.995-27.514c-0.513-0.504-0.745-0.751-0.615-0.667
				c0.096,0.062,0.308,0.294,0.615,0.667c3.36,3.304,18.979,17.828,26.573,24.881l10.823-4.333l-9.324-16.328l16.029,13.644
				l16.738-6.7c0,0-144.317-66.942-184.804,73.977l26.895-10.766L1191.769,181.77z"/>
			<path fill="#1B5E3B" d="M1202.516,180.001l10.122,21.615l0,0l3.382-8.275l14.535,3.467l-1.002-16.881l13.835,15.595l3.287-5.049
				l5.113,9.579l21.837-0.872l-1.904-16.947l12.312,9.817l-2.605-14.292l11.286,20.66l9.683-0.387l-3.211-22.803l12.193,19.036
				l2.679-9.351l5.792,12.421l7.643-0.306l-3.018-16.427l11.233,16.099l2.759-0.11l0.327-6.664l2.808,6.539l13.759-0.55
				c0,0-117.33-94.396-190.042,7.592l35.691-1.426L1202.516,180.001z"/>
			<path fill="#1B5E3B" d="M1209.655,202.417l-2.219,23.765l0,0l7.107-5.423l10.777,10.351l7.685-15.063l4.032,20.454l5.392-2.689
				l-0.441,10.849l19.271,10.307l6.939-15.578l5.646,14.7l4.991-13.643l-0.73,23.53l8.545,4.57l8.779-21.288l0.874,22.589
				l7.046-6.707l-1.297,13.644l6.745,3.607l5.718-15.693l1.533,19.571l2.434,1.302l3.658-5.581l-0.891,7.061l12.143,6.494
				c0,0-53.368-140.815-167.716-89.695l31.498,16.845L1209.655,202.417z"/>
			<path fill="#1B5E3B" d="M1171.742,177.402l9.472,3.598l2.555-4.42l-5.208-9.127l7.509,5.146l9.584-16.585l-21.22-14.543
				l25.823,6.577l1.775-3.072l-10.399-13.042l13.726,7.287l10.977-18.994l-30.626-20.989l33.316,16.333l0.964-1.667l-14.876-12.334
				l18.337,6.344l0.782-1.353l-29.627-20.305l30.858,10.982l-4.306-6.607l9.833,4.234l0.476-0.824l-21.248-14.563l26.186,6.021
				l1.116-1.932l-6.388-4.378l9.666-1.296l0,0l-10.964-7.514l13.83,2.555l6.661-11.527c0,0-142.468,26.518-83.551,144.581
				l11.01-19.053L1171.742,177.402z"/>
			<circle fill="#8BBC84" cx="1155.264" cy="214.561" r="14.752"/>
			<circle fill="#81AD79" cx="1181.794" cy="227.838" r="14.752"/>
			<circle fill="#A0D699" cx="1176.667" cy="205.986" r="14.752"/>
		</g>
		<g clip-path="url(#SVGID_2_)">
			<polygon fill="#996717" points="168.842,631.21 140.871,631.21 152.586,210.569 167.638,210.569 			"/>
			<path fill="#1B5E3B" d="M23.061,164.368l-5.363,15.222l2.092,0.666l9.179-14.676l-4.912,16.034l21.258,6.763l14.292-19.591
				l-3.535,17.232l18.229-18.835l-5.856,28.553l6.616,2.105l3.937-3.53l-0.921,4.489l12.229,3.891l7.719-18.601l-3.083,15.03
				l15.751-19.343l-9.172,26.482l16.683,5.308l12.808-20.711l-4.772,23.268l1.418,0.451l5.889-8.562l0.258,10.518l25.426,8.089
				c-46.035-109.486-176.994-56.312-176.994-56.312l25.536,8.125L23.061,164.368z"/>
			<path fill="#1B5E3B" d="M76.646,60.693l9.296,18.453l13.92,0.931l-6.157,4.381l14.464,0.145l-12.005,6.003l8.37,1.716
				l-9.101,5.663l6.829,13.556l12.75-5.27l-5.946,6.476l16.269-4.358l-14.817,9.787l9.367-0.644l-4.166,5.302l-3.005,9.452
				l3.609,7.165l19.544-4.789l-9.102,6.855l23.935,3.37l-11.223,2.188l-16.35,5.884l2.376,4.718l7.761,1.592l-4.544,4.794
				l1.636,3.247l20.438-0.372l-16.232,8.719l2.184,4.334l10.913,2.238l-8.59,2.373l4.13,8.199l5.043,1.589l-3.469,1.536
				l14.455,28.693C195.905,102.084,76.646,60.693,76.646,60.693z"/>
			<path fill="#1B5E3B" d="M24.149,253.822l15.213-3.301l4.292-10.383l1.42,5.569l3.891-10.957l1.011,10.342l3.382-6.008
				l1.537,8.066l11.176-2.425l-0.308-10.757l2.926,5.835l1.245-13.246l2.895,13.249l2.008-7.246l2.58,4.245l5.758,4.209l5.907-1.282
				l1.806-15.821l2.361,8.31l8.605-17.493l-1.426,8.97l-0.209,13.618l3.889-0.844l3.136-5.571l2.129,4.428l2.677-0.581l5.098-15.599
				l1.784,14.106l3.573-0.775l4.409-7.833l-0.607,7.008l6.759-1.467l2.422-3.506l0.155,2.947l23.656-5.133
				C84.061,171.672,24.149,253.822,24.149,253.822z"/>
			<path fill="#1B5E3B" d="M175.882,194.707l12.395,2.542l0.691-0.651l-6.687-8.079l12.533,2.57l1.745-1.645l-6.232-5.134
				l-13.438-12.021l16.123,8.941l10.073,2.066l2.905-2.737l-5.752-7.043l-9.56-5.143l27.777,0.44l-8.573-7.3l6.602-4.674
				l-14.53-11.702l25.109,5.15l-6.577-5.453l19.232,3.944l13.288-12.521l-15.604-11.554l16.776,3.441l-8.218-12.46l17.86,10.383
				l8.267-7.79c-6.858-4.479-24.555-15.997-28.682-18.281c-0.662-0.281-0.968-0.426-0.816-0.395
				c0.112,0.023,0.395,0.162,0.816,0.395c4.337,1.844,24.189,9.64,33.839,13.421l8.485-7.995l-14.656-11.78l19.913,6.827
				l13.122-12.364c0,0-158.807-9.445-144.878,136.512l21.084-19.867L175.882,194.707z"/>
			<path fill="#1B5E3B" d="M185.235,189.125l17.333,16.407h0l0.117-8.939l14.795-2.096l-7.114-15.341l18.584,9.446l1.21-5.902
				l8.266,7.041l20.001-8.808l-7.978-15.073l15.052,4.626l-7.658-12.344l18.067,15.091l8.868-3.905l-11.337-20.043l18.317,13.249
				l-0.932-9.683l9.938,9.438l7-3.083l-8.823-14.182l16.349,10.868l2.526-1.113l-2.136-6.322l5.007,5.057l12.602-5.549
				c0,0-143.748-44.875-174.062,76.656l32.69-14.396L185.235,189.125z"/>
			<path fill="#1B5E3B" d="M187.5,218.104l0.36,10.126l5.065,0.639l6.391-8.341l-1.829,8.917l19.004,2.397l5.168-25.201l3.96,26.352
				l3.52,0.444l7.985-14.646l-1.39,15.478l21.765,2.746l7.46-36.371l-2.123,37.044l1.909,0.241l5.595-18.496l1.269,19.362
				l1.55,0.195l7.216-35.184l1.854,32.702l4.418-6.533l-0.086,10.706l0.944,0.119l5.176-25.235l4.613,26.47l2.214,0.279l1.556-7.586
				l4.946,8.406l0,0l2.67-13.02l3.012,13.737l13.209,1.667c0,0-79.726-121.014-165.673-20.898l21.832,2.754L187.5,218.104z"/>
			<circle fill="#8BBC84" cx="147.65" cy="231.871" r="13.646"/>
			<circle fill="#8BBC84" cx="176.732" cy="231.871" r="13.646"/>
			<circle fill="#A0D699" cx="171.099" cy="244.299" r="13.646"/>
		</g>
		<rect x="-6.465" y="598.541" clip-path="url(#SVGID_2_)" fill="#563B4A" width="1435.767" height="47.618"/>
		<g clip-path="url(#SVGID_2_)">
			<path fill="#ECAA76" d="M842.014,642.76l-14.467,12.35c-8.786,7.5-19.7,12.062-31.211,13.046l-141.972,12.134v-25.247
				l110.325-21.435c5.973-1.16,11.579-3.735,16.352-7.509l22.079-17.457L842.014,642.76z"/>
			<path fill="#F3871B" d="M651.812,646.577l5.063,7.374c3.288,4.787,3.814,10.951,1.386,16.227l-2.435,5.293l5.393,9.067
				c0,0-22.852,32.626-17.444,56.676c5.408,24.05-14.531,14.419-15.039-22.712c-0.33-24.094-5.084-49.575-8.382-64.498
				c-2.354-10.654,8.291-19.524,18.345-15.287C642.484,640.312,646.837,642.815,651.812,646.577z"/>
			<path fill="#DBE8D9" d="M837.237,546.888c0,0-29.342,43.33-71.648,50.836c0,0,11.601,45.718,66.189,62.095
				c0,0,59.366-32.753,64.143-75.06S863.85,529.487,837.237,546.888z"/>
			<path fill="#9FB79C" d="M773.354,897.501h-20.389c-8.782,0-15.901-7.119-15.901-15.901v-14.043h73.048l-9.466,14.932
				C794.72,891.836,784.422,897.501,773.354,897.501z"/>
			<path fill="#9FB79C" d="M1008.45,897.501h20.389c8.782,0,15.901-7.119,15.901-15.901v-14.043h-73.048l9.466,14.932
				C987.084,891.836,997.382,897.501,1008.45,897.501z"/>
			<path fill="#DB9C72" d="M1030.346,426.511c0,0,39.744,26.117,64.825,34.179c29.342,9.432,3.411,48.327-21.153,42.185
				c-24.565-6.142-69.463-62.777-69.463-62.777L1030.346,426.511z"/>
			<path fill="#ECAA76" d="M921.168,630.477l28.626,32.302c5.194,5.86,7.288,13.845,5.638,21.501l-30.17,139.989l25.248,4.094
				l55.063-156.329c2.703-7.676,1.577-16.182-3.029-22.889l-40.058-58.325L921.168,630.477z"/>
			<path fill="#F3871B" d="M918.95,823.415l8.001-4c5.194-2.598,11.372-2.271,16.264,0.859l4.906,3.141l9.724-4.094
				c0,0,29.171,27.124,53.736,25.076c24.565-2.047,12.282,16.377-24.565,11.771c-23.909-2.989-49.803-1.786-65.038-0.574
				c-10.876,0.866-18.197-10.897-12.617-20.273C911.461,831.792,914.54,827.825,918.95,823.415z"/>
			<path fill="#EFF9ED" d="M831.778,524.711c0,0-19.788,47.766,18.424,60.73s53.907,81.201,53.907,81.201
				s73.971-14.33,86.457-36.848l-63.943-93.484C926.623,536.311,854.979,497.416,831.778,524.711z"/>
			<path fill="#ECAA76" d="M850.202,432.591l-25.805,20.049c-6.851,5.322-12.68,11.843-17.203,19.246l-56.276,75.001l-22.859-22.859
				l49.127-70.784c9.457-13.626,21.583-25.19,35.644-33.989l18.949-11.859L850.202,432.591z"/>
			<path fill="#ECAA76" d="M750.918,546.888c0,0-14.671,19.447-22.859,18.082c0,0-17.059-1.228-24.564,0.069
				c0,0-19.789-32.14,0-39.646c19.788-7.506,24.564-1.364,24.564-1.364S752.624,531.534,750.918,546.888z"/>
			<polygon fill="#DD9D72" points="954.912,354.798 942.118,381.811 970.266,390.963 980.06,368.957 			"/>
			<path fill="#ECAA76" d="M1011.72,313.174c0,0,4.094,65.507-19.448,62.436c-23.541-3.071-39.918-14.33-41.965-21.495
				c-2.047-7.165,4.094-38.895,16.377-55.271C978.966,282.467,1011.775,290.549,1011.72,313.174z"/>
			<path fill="#462737" d="M966.956,351.191c-7.936,6.146-18.868,6.12-28.901,5.817c-0.531-10.255,5.165-20.209,13.328-26.44
				c1.546-1.181,3.188-2.252,4.974-3.023c4.943-2.134,21.686-4.682,23.528,2.293C981.515,336.003,971.312,347.817,966.956,351.191z"
				/>
			<path fill="none" stroke="#231F20" stroke-miterlimit="10" d="M1001.143,335.691c0,0-4.776,7.847,3.412,12.624
				c0,0-1.365,5.118-9.212,3.753"/>
			<path fill="none" stroke="#231F20" stroke-miterlimit="10" d="M978.625,354.798c0,0,2.388,8.871,11.941,8.871"/>
			<path fill="#DD4B19" d="M900.697,374.695c0,0,61.958,5.354,99.897,17.637c0,0-43.269,108.496-73.972,143.979
				c0,0-83.244,0.683-94.845-11.6C831.778,524.711,856.344,431.338,900.697,374.695z"/>
			<path fill="#DD4B19" d="M900.697,374.695L900.697,374.695c-16.217,0-32.273,3.206-47.247,9.433l-39.413,16.392
				c0,0-0.683,33.436,34.801,39.577c0,0,34.8-20.471,58.342-25.248L900.697,374.695z"/>
			<path fill="#DD4B19" d="M1000.595,392.332c0,0,33.163,34.801,49.54,35.483c0,0-18.424,35.198-38.213,32.753
				c0,0-17.059-14.474-27.977-36.579C983.945,423.99,987.22,397.791,1000.595,392.332z"/>
			<path fill="#DD9D72" d="M958.056,407.396c12.647,0,22.9-8.642,22.9-19.303c0-0.381-0.042-0.753-0.068-1.129
				c-14.277-3.323-29.649-5.922-43.091-7.857c-1.68,2.685-2.641,5.739-2.641,8.986C935.156,398.754,945.409,407.396,958.056,407.396
				z"/>
			<path fill="#ECAA76" d="M1080.841,433.274l-24.456,27.416c0,0-4.203,38.034,21.045,42.839
				c25.247,4.805,39.576-13.619,39.576-13.619S1149.077,451.698,1080.841,433.274z"/>
			<g>
				<g>
					<path fill="#CCEDC8" d="M1032.98,454.375l-7.131-66.898c-0.14-1.311-1.484-2.132-2.714-1.657l-17.351,6.701l-1.98-5.126
						l20.604-7.96c2.96-1.144,6.199,0.833,6.536,3.989l7.5,70.369L1032.98,454.375z"/>
				</g>
				<polygon fill="#EFF9ED" points="1061.227,478.765 1028.292,477.72 1020.826,406.985 1068.691,405.939 				"/>
				<path fill="#F8930D" d="M1041.556,395.638c6.902-6.275,17.585-5.766,23.859,1.136c6.275,6.902,5.767,17.584-1.136,23.859
					L1041.556,395.638z"/>
			</g>
			<path fill="#3FAA9F" d="M1101.056,852.549l-48.861,15.008H715.598l-64.992-26.658c-10.646-2.683-10.646-11.205-10.646-17.085l0,0
				l82.077,33.098h327.351l62.313-18.228l0,0C1111.701,844.562,1106.936,852.549,1101.056,852.549z"/>
			<circle fill="#175957" cx="766.37" cy="893.636" r="22.405"/>
			<circle fill="#ECAA76" cx="766.37" cy="893.636" r="11.672"/>
			<circle fill="#175957" cx="1015.434" cy="893.636" r="22.404"/>
			<circle fill="#ECAA76" cx="1015.434" cy="893.636" r="11.672"/>
			<path fill="#ECAA76" d="M1077.394,425.313c-0.481-1.049-0.981-2.149-1.892-2.859c-1.69-1.32-4.121-0.85-6.177-0.237
				c-7.167,2.137-14.26,5.276-21.736,5.083c-2.294-0.059-4.642-0.43-6.85,0.194c-2.208,0.624-4.257,2.673-3.89,4.938
				c0.32,1.979,2.271,3.282,3.013,5.144c1.455,3.652-2.115,7.301-2.731,11.183c-0.57,3.583,1.434,7.017,3.357,10.093
				c0.604,0.964,1.212,1.936,2.002,2.754c1.816,1.88,4.404,2.771,6.909,3.518c4.255,1.269,8.777,2.313,13.101,1.301
				c3.117-0.73,5.978-2.502,9.168-2.776c2.65-0.228,5.488,0.577,7.889-0.571c2.2-1.052,3.381-3.454,4.229-5.741
				c1.707-4.607,4.183-11.698,2.53-16.55C1084.572,435.667,1079.745,430.429,1077.394,425.313z"/>
			<path fill="#3FAA9F" d="M940.966,320.578c0,0,0.129-44.252,31.858-46.299c27.455-1.771,46.06,9.724,48.107,27.124
				c0,0,6.652,6.141,23.029,9.724c0,0-91.096,42.989-125.385,29.683C918.576,340.809,936.648,332.959,940.966,320.578z"/>
		</g>
	</g>
</g>
</svg>
